<svg width="24" height="20" viewBox="0 0 24 20" fill="none" xmlns="http://www.w3.org/2000/svg">
<path d="M16.5716 10.5714C17.8332 10.5729 18.8571 9.54561 18.8571 8.28342C18.8571 7.02009 17.8332 5.99846 16.5716 5.99998C15.3048 5.99998 14.285 7.01934 14.2857 8.28342C14.2831 9.54864 15.3048 10.5714 16.5716 10.5714Z" fill="#D5E1EA"/>
<path fill-rule="evenodd" clip-rule="evenodd" d="M7.42644 4.6671C9.08915 2.36278 11.7964 0.858216 14.8499 0.857117C19.8953 0.857483 24.0033 4.95812 24 10.0014C24.0033 15.0393 19.8942 19.1439 14.8499 19.1428C11.7964 19.1417 9.08915 17.6383 7.42644 15.3354C5.76226 17.6383 3.05503 19.1417 0 19.1417L0.00293506 15.692C3.14088 15.6957 5.69989 13.1378 5.69989 9.99961C5.69989 6.86036 3.14088 4.30717 0 4.30937L0.00110065 0.859316C3.05503 0.857117 5.76226 2.36168 7.42644 4.6671ZM9.15299 9.99961C9.15116 13.1378 11.7091 15.692 14.8499 15.6931C17.9905 15.692 20.5469 13.1378 20.5476 10.0014C20.5487 6.86219 17.9916 4.30571 14.8499 4.30608C11.7076 4.30717 9.15189 6.86036 9.15299 9.99961Z" fill="#D5E1EA"/>
</svg>
